<svg xmlns="http://www.w3.org/2000/svg" viewBox="0 0 662.67 471.89">
  <defs>
    <clipPath id="a">
      <path d="M0 353.92h497V0H0z"/>
    </clipPath>
  </defs>
  <g clip-path="url(#a)" transform="matrix(1.33333 0 0 -1.33333 0 471.89)">
    <path
      d="M497 173.83c0 26.72-6.8 38.46-17.9 55.39a13.8 13.8 0 0 1-11.58 6.22 13.83 13.83 0 0 1-11.55-21.42c9.5-14.48 13.36-21.12 13.36-40.19 0-19.7-18.28-41.18-50.15-58.95-32.78-18.27-77-31.2-124.5-36.42a13.88 13.88 0 0 1-12.25-15.28 13.82 13.82 0 0 1 15.28-12.24c56.6 6.23 107.94 22.42 144.55 45.58 35.3 22.34 54.74 49.8 54.74 77.31M238.5 67.84l-53.33 53.33a8.5 8.5 0 0 1-14.5-6V83.05l-9.06 1.92c-37.99 8.06-70.71 20.79-94.64 36.81-25.71 17.22-39.3 37.06-39.3 57.37 0 15.05 1.73 21.95 12 33.1a13.71 13.71 0 0 1 3.64 9.93 13.78 13.78 0 0 1-13.8 13.25c-3.75 0-7.48-1.5-10.2-4.46C3.07 213.38 0 199.18 0 179.16c0-56.02 64.59-104.34 164.55-123.1l6.12-1.14V8.5a8.47 8.47 0 0 1 14.48-6.02l53.36 53.35a8.5 8.5 0 0 1 0 12"/>
    <path
      d="M112.46 235.08c0 6.18 5.06 11.24 11.24 11.24.64 0 1.3-.12 1.88-.35l46.77-16.89a5.65 5.65 0 0 0 3.7-5.3c.06-6.11-5-11.17-11.23-11.17H123.7a11.27 11.27 0 0 0-11.24 11.24zm85 100.54h102.01c25.3 0 44.6-25 55.83-44.6H141.7c11.23 19.6 30.53 44.6 55.77 44.6m173.95-89.6c.65.24 1.23.36 1.88.36 6.18 0 11.24-5.06 11.24-11.24v-11.3c0-6.17-5.06-11.23-11.24-11.23h-41.12a11.27 11.27 0 0 0-11.23 11.24 5.65 5.65 0 0 0 3.7 5.3zm44.47-36.41a5.6 5.6 0 0 1-5.29 5.53V254.56c-.04 9.82-4.73 24.05-26.06 37.76 0 0-28.3 61.6-78.6 61.6H191c-50.3 0-78.6-61.6-78.6-61.6-21.33-13.65-26.02-27.94-26.06-37.76V215.14a5.55 5.55 0 0 1-5.23-5.53v-19a5.54 5.54 0 0 1 3.7-5.18v-26a5.57 5.57 0 0 1 5.53-5.59h38.3a5.54 5.54 0 0 1 5.53 5.6v25.76a318.46 318.46 0 0 0 47.18 11.53h134.13a316.7 316.7 0 0 0 47.17-11.53v-25.77a5.57 5.57 0 0 1 5.53-5.59h38.3a5.54 5.54 0 0 1 5.53 5.6v26a5.46 5.46 0 0 1 3.7 5.17v6.94h.18z"/>
  </g>
</svg>
